<svg width="40" height="40" viewBox="0 0 40 40" fill="none" xmlns="http://www.w3.org/2000/svg">
<g clip-path="url(#clip0_1_18)">
<path d="M9.99996 0.000347636C4.47749 0.000347636 0 4.47717 0 10.0002V30.0007C0 35.5235 4.47749 40.0003 9.99996 40.0003H30.0004C35.5232 40.0003 40.0006 35.5235 40.0006 30.0007V0.000347636H9.99996Z" fill="#9FF01E"/>
<path d="M10.9325 15.9729C10.6054 14.5424 12.0327 13.2765 13.879 13.2765C15.542 13.2765 17.209 13.6494 17.8433 15.9681H19.9751V19.5067C17.3172 17.3218 11.5548 18.6927 10.9325 15.9729V15.9729ZM33.0531 14.9933H28.2507L23.6821 19.9969V10.0001H19.9751V12.4223C19.8542 12.2662 19.7266 12.1111 19.5838 11.9596C18.2358 10.5326 16.2938 9.80916 13.8107 9.80916C10.9392 9.80916 9.30662 11.0943 8.44251 12.1722C7.36929 13.5104 6.89013 15.337 7.22173 16.8252C8.08074 20.6779 11.6557 21.2932 14.282 21.6346C16.3554 21.9043 18.339 22.2807 18.2863 24.1288C18.2314 26.0467 16.0695 26.5183 14.6504 26.5183C10.9545 26.5183 10.8298 23.7864 10.8298 23.7864H6.8549C6.91298 24.8123 7.22301 26.4593 8.48597 27.8727C9.86885 29.4213 11.943 30.206 14.6504 30.206C16.7273 30.206 18.6192 29.5295 19.9751 28.328V29.9791H23.6821V25.2601L24.9936 23.8255L28.7378 29.9791H33.0518L27.6033 20.9663L33.0531 14.9933" fill="#424B52"/>
</g>
<defs>
<clipPath id="clip0_1_18">
<rect width="40" height="40" fill="white"/>
</clipPath>
</defs>
</svg>
