<svg width="26" height="26" viewBox="0 0 26 26" fill="none" xmlns="http://www.w3.org/2000/svg">
<path d="M6.9275 8.15926L9.06792 18.2535C9.22942 18.9659 9.65052 19.1431 10.249 18.8076L13.5103 16.4043L15.0838 17.9178C15.258 18.0919 15.4037 18.2376 15.7393 18.2376L15.505 14.9161L9.46054 9.45428C9.19768 9.21997 9.51751 9.09014 9.86899 9.32446L17.3414 14.0296L20.5584 13.0227C21.2582 12.8042 21.2708 12.3229 20.4128 11.9874L7.82993 7.1397C7.24736 6.92127 6.73758 7.26952 6.9275 8.15926V8.15926Z" fill="white"/>
<path d="M1 13C1 6.37258 6.37258 1 13 1C19.6274 1 25 6.37258 25 13C25 19.6274 19.6274 25 13 25C6.37258 25 1 19.6274 1 13Z" stroke="url(#paint0_linear_2_32)"/>
<defs>
<linearGradient id="paint0_linear_2_32" x1="14.5989" y1="6.54917" x2="3.39143" y2="28.9639" gradientUnits="userSpaceOnUse">
<stop stop-color="white"/>
<stop offset="1" stop-color="white"/>
</linearGradient>
</defs>
</svg>
