<svg width="30" height="17" viewBox="0 0 30 17" fill="none" xmlns="http://www.w3.org/2000/svg">
<path fill-rule="evenodd" clip-rule="evenodd" d="M25.8199 10.809C26.8139 11.7818 27.8649 12.6979 28.7569 13.7677C29.1509 14.2448 29.5249 14.7356 29.8099 15.2882C30.2149 16.0729 29.8489 16.937 29.1449 16.983L24.7749 16.9821C23.6478 17.0751 22.7488 16.6215 21.9918 15.8495C21.3868 15.2323 20.8268 14.5759 20.2448 13.9372C20.0068 13.6766 19.7568 13.4316 19.4588 13.2377C18.8618 12.8497 18.3438 12.9682 18.0028 13.5913C17.6558 14.2252 17.5768 14.9267 17.5428 15.633C17.4958 16.6637 17.1848 16.935 16.1508 16.9821C13.9418 17.0859 11.8448 16.7518 9.89777 15.635C8.17975 14.6514 6.84775 13.2631 5.68974 11.6907C3.43273 8.62819 1.70472 5.26391 0.151706 1.80558C-0.198296 1.02672 0.0577058 0.608392 0.915711 0.593696C2.34172 0.565285 3.76773 0.567245 5.19474 0.591737C5.77474 0.599575 6.15774 0.932671 6.38174 1.4813C7.15275 3.37995 8.09675 5.1875 9.28176 6.8618C9.59676 7.30756 9.91877 7.75332 10.3768 8.06683C10.8838 8.4156 11.2698 8.29999 11.5078 7.73471C11.6598 7.37614 11.7258 6.99014 11.7598 6.6061C11.8728 5.28547 11.8878 3.96679 11.6898 2.65008C11.5678 1.82909 11.1058 1.2981 10.2878 1.14135C9.86977 1.06297 9.93177 0.90622 10.1338 0.668153C10.4848 0.256681 10.8158 0 11.4738 0H16.4138C17.1908 0.153812 17.3638 0.503564 17.4708 1.28732L17.4748 6.78048C17.4658 7.08419 17.6258 7.98453 18.1718 8.18439C18.6078 8.32743 18.8958 7.97865 19.1578 7.70042C20.3408 6.44347 21.1848 4.95825 21.9378 3.42012C22.2728 2.74413 22.5608 2.04169 22.8398 1.34023C23.0468 0.819027 23.3698 0.563326 23.9569 0.575082L28.7099 0.579001C28.8509 0.579001 28.9939 0.58096 29.1299 0.604473C29.9319 0.741631 30.1509 1.08648 29.9039 1.86926C29.5139 3.0978 28.7549 4.12257 28.0139 5.15125C27.2209 6.24949 26.3739 7.3105 25.5869 8.4156C24.8649 9.42469 24.9219 9.93315 25.8189 10.809H25.8199Z" fill="white"/>
</svg>
